# xmcd
#
# Track frame offsets:
#	150
#	13319
#	25431
#	38977
#	53849
#	67881
#	76327
#	87863
#	98850
#	108484
#	116072
#	125569
#	140265
#	149566
#	160883
#	170224
#	180372
#	191673
#	203558
#	218922
#
# Disc length: 3056 seconds
#
# Revision: 0
# Processed by: cddbd v1.5.2PL0 Copyright (c) Steve Scherf et al.
# Submitted via: audiograbber 1.83.01
#
DISCID=220bee14
DTITLE=Various Artist - Western-Hits Vol. 12 [CD 1)
DYEAR=1999
DGENRE=Country
TTITLE0=Johnny Lee - Blueberry Hill
TTITLE1=Lynn Anderson - I've Never Loved Anyone More [live]
TTITLE2=Ferlin Husky - Baby
TTITLE3=Kenny Rogers - All God's Lovely Children
TTITLE4=Razzy Bailey - I Hate Hate
TTITLE5=Waylon Jennings - Abilene [mono]
TTITLE6=Mickey Gilley - Breathless [mono]
TTITLE7=Patsy Cline - Hidin' Out [mono]
TTITLE8=Johnny Cash - Down The Street To 301 [mono]
TTITLE9=Jimmy Dean - I Didn't Have Time
TTITLE10=Bill Monroe - I Saw The Light
TTITLE11=David Frizzell - Country Music Affair
TTITLE12=Dolly Parton - Girl Left Alone [mono]
TTITLE13=Johnny Lee - Country Candy Store
TTITLE14=Jim Reeves - Dear Hearts And Gentle People [mono]
TTITLE15=Johnny Paycheck - A-11
TTITLE16=Kenny Rogers - A Poem For My Little Lady
TTITLE17=Lee Greenwood - I.O.U. [live]
TTITLE18=Carl Perkins - 21 [live]
TTITLE19=Merle Haggard - Corrina Corrina [live] [mono]
EXTD=
EXTT0=
EXTT1=
EXTT2=
EXTT3=
EXTT4=
EXTT5=
EXTT6=
EXTT7=
EXTT8=
EXTT9=
EXTT10=
EXTT11=
EXTT12=
EXTT13=
EXTT14=
EXTT15=
EXTT16=
EXTT17=
EXTT18=
EXTT19=
PLAYORDER=
